<svg id="svg" version="1.1" xmlns="http://www.w3.org/2000/svg" xmlns:xlink="http://www.w3.org/1999/xlink" width="400" height="266.6666666666667" viewBox="0, 0, 400,266.6666666666667"><g id="svgg"><path id="path0" d="M111.273 52.997 C 99.445 53.391,89.697 53.784,89.611 53.871 C 89.472 54.009,91.686 126.676,91.832 126.777 C 91.927 126.843,135.413 125.772,135.483 125.702 C 135.604 125.582,134.384 106.336,134.247 106.186 C 134.172 106.105,127.832 106.692,120.157 107.491 C 112.483 108.290,106.170 108.907,106.130 108.861 C 106.068 108.791,105.320 95.772,105.330 94.944 C 105.333 94.726,107.994 94.667,117.889 94.667 L 130.444 94.667 130.444 94.116 C 130.444 93.416,128.918 79.288,128.833 79.204 C 128.798 79.169,123.235 79.489,116.471 79.915 C 109.706 80.341,104.147 80.660,104.116 80.623 C 104.009 80.493,103.152 67.444,103.244 67.350 C 103.295 67.298,110.955 67.371,120.265 67.513 C 129.576 67.654,137.214 67.747,137.240 67.718 C 137.266 67.690,137.361 64.192,137.450 59.944 L 137.613 52.222 135.196 52.251 C 133.866 52.268,123.101 52.603,111.273 52.997 M35.561 54.722 C 35.564 55.731,35.399 73.032,35.194 93.171 C 34.990 113.309,34.869 129.832,34.927 129.889 C 35.020 129.983,83.802 124.719,83.912 124.604 C 84.001 124.511,80.096 94.466,79.980 94.351 C 79.917 94.287,75.470 93.275,70.099 92.101 C 64.728 90.928,60.188 89.921,60.011 89.863 C 59.834 89.805,64.134 87.669,69.566 85.116 C 79.311 80.537,79.442 80.466,79.387 79.848 C 79.110 76.779,76.864 54.570,76.827 54.537 C 76.786 54.502,36.213 52.870,35.722 52.884 C 35.631 52.887,35.558 53.714,35.561 54.722 M186.253 53.461 C 182.053 53.744,178.568 54.025,178.507 54.086 C 178.446 54.147,178.502 60.574,178.631 68.369 C 178.760 76.164,178.846 82.558,178.822 82.578 C 178.797 82.598,174.953 82.686,170.278 82.775 L 161.778 82.936 161.778 68.277 L 161.778 53.618 158.944 53.480 C 157.386 53.403,153.797 53.275,150.969 53.195 L 145.826 53.049 145.691 55.802 C 145.484 60.024,143.916 125.547,144.020 125.638 C 144.070 125.682,148.386 125.787,153.611 125.872 L 163.111 126.025 163.093 123.735 C 163.083 122.475,162.953 116.244,162.805 109.889 C 162.657 103.533,162.550 98.306,162.569 98.273 C 162.621 98.177,177.879 97.825,177.982 97.917 C 178.033 97.963,178.404 104.176,178.807 111.723 C 179.210 119.270,179.543 125.497,179.548 125.561 C 179.556 125.680,195.804 124.714,195.932 124.587 C 196.015 124.504,194.964 64.549,194.758 57.611 C 194.633 53.424,194.576 52.892,194.253 52.918 C 194.053 52.934,190.453 53.178,186.253 53.461 M263.280 54.611 C 263.314 55.558,263.797 71.483,264.354 89.998 C 264.911 108.514,265.417 123.714,265.479 123.775 C 265.611 123.907,304.957 126.417,305.092 126.302 C 305.198 126.211,306.848 105.705,306.758 105.590 C 306.725 105.548,300.567 106.365,293.073 107.406 C 285.579 108.448,279.436 109.282,279.423 109.261 C 279.409 109.240,279.770 97.022,280.225 82.111 C 280.680 67.200,281.020 54.962,280.980 54.916 C 280.919 54.846,264.122 52.909,263.443 52.894 C 263.306 52.891,263.243 53.560,263.280 54.611 M311.563 54.026 C 312.007 86.659,312.642 128.048,312.700 128.101 C 312.778 128.174,364.257 118.192,364.422 118.073 C 364.505 118.012,358.329 60.655,358.085 59.222 L 357.971 58.555 335.486 56.138 C 323.119 54.808,312.675 53.670,312.278 53.609 C 311.633 53.509,311.556 53.554,311.563 54.026 M207.553 57.389 C 207.551 57.542,206.506 72.713,205.230 91.103 C 203.954 109.494,202.935 124.564,202.964 124.594 C 203.019 124.649,257.630 126.841,257.710 126.792 C 257.734 126.777,256.609 111.168,255.210 92.105 C 253.812 73.042,252.667 57.369,252.667 57.278 C 252.667 57.186,242.517 57.111,230.111 57.111 C 212.216 57.111,207.555 57.169,207.553 57.389 M63.794 69.742 L 64.831 74.929 63.916 75.324 C 63.412 75.541,59.838 77.132,55.974 78.859 C 52.110 80.587,48.885 82.000,48.807 82.000 C 48.415 82.000,48.662 64.700,49.056 64.596 C 49.269 64.539,52.440 64.507,56.101 64.524 L 62.757 64.556 63.794 69.742 M345.302 74.117 C 345.396 74.211,347.765 104.168,347.773 105.349 L 347.778 106.142 338.407 109.182 C 333.253 110.854,329.017 112.197,328.994 112.166 C 328.971 112.136,329.001 102.705,329.061 91.208 L 329.171 70.304 337.197 72.171 C 341.611 73.197,345.258 74.073,345.302 74.117 M232.611 73.252 C 236.125 73.379,236.666 73.446,236.665 73.755 C 236.664 73.951,237.175 82.492,237.799 92.736 C 238.424 102.980,238.878 111.418,238.808 111.488 C 238.653 111.644,221.629 111.125,220.218 110.922 L 219.213 110.778 220.482 92.889 C 221.180 83.050,221.757 74.511,221.765 73.912 L 221.778 72.825 225.167 72.966 C 227.031 73.043,230.381 73.172,232.611 73.252 M57.461 100.673 C 62.572 101.776,66.771 102.701,66.794 102.728 C 67.007 102.989,67.867 113.394,67.679 113.449 C 67.446 113.516,50.759 114.011,48.944 114.004 L 48.000 114.000 48.000 106.333 C 48.000 102.117,48.038 98.667,48.084 98.667 C 48.130 98.667,52.350 99.569,57.461 100.673 M20.894 138.944 C 20.897 139.953,20.732 157.255,20.528 177.393 C 20.323 197.531,20.203 214.055,20.260 214.112 C 20.353 214.205,69.135 208.942,69.246 208.826 C 69.334 208.734,65.429 178.688,65.314 178.573 C 65.250 178.509,60.803 177.497,55.432 176.323 C 50.061 175.150,45.522 174.143,45.345 174.085 C 45.167 174.027,49.467 171.891,54.899 169.338 C 64.644 164.759,64.775 164.689,64.720 164.071 C 64.444 161.001,62.198 138.792,62.160 138.759 C 62.119 138.724,21.547 137.092,21.056 137.106 C 20.964 137.109,20.891 137.936,20.894 138.944 M268.299 140.067 C 268.376 141.680,268.554 146.150,268.694 150.000 C 268.835 153.850,268.982 157.038,269.022 157.084 C 269.062 157.130,273.073 156.917,277.936 156.611 C 282.799 156.304,286.799 156.071,286.825 156.093 C 286.851 156.114,286.636 167.827,286.346 182.121 C 286.057 196.416,285.852 208.143,285.889 208.183 C 285.995 208.293,303.767 206.752,303.897 206.621 C 303.961 206.558,303.410 195.367,302.673 181.753 C 301.936 168.139,301.333 156.650,301.333 156.222 L 301.333 155.444 311.200 155.504 L 321.066 155.565 320.948 146.838 C 320.884 142.038,320.802 138.077,320.766 138.036 C 320.731 137.995,311.519 137.827,300.295 137.662 C 289.072 137.498,277.250 137.312,274.024 137.249 L 268.159 137.135 268.299 140.067 M245.468 140.913 C 244.965 151.106,243.734 210.503,244.022 210.685 C 244.193 210.794,246.183 210.884,248.444 210.886 C 250.706 210.888,254.581 210.956,257.056 211.036 L 261.556 211.182 261.556 174.954 L 261.556 138.727 259.278 138.590 C 258.025 138.514,254.436 138.386,251.302 138.306 L 245.604 138.159 245.468 140.913 M118.000 139.567 C 113.294 139.909,109.054 140.197,108.577 140.206 L 107.711 140.222 107.856 155.944 C 107.936 164.592,108.066 176.342,108.145 182.056 L 108.289 192.444 100.978 192.443 C 96.957 192.441,93.153 192.379,92.525 192.303 L 91.383 192.166 91.503 167.331 L 91.623 142.495 90.756 142.355 C 88.354 141.967,74.593 140.222,74.519 140.296 C 74.368 140.447,77.403 207.882,77.570 208.077 C 77.712 208.243,117.259 209.534,122.669 209.550 L 124.783 209.556 126.291 174.944 C 128.049 134.611,127.945 138.881,127.167 138.917 C 126.831 138.932,122.706 139.225,118.000 139.567 M135.990 139.914 C 135.985 140.511,135.049 156.850,133.910 176.222 C 132.772 195.594,131.901 211.507,131.976 211.583 C 132.050 211.659,135.686 211.785,140.056 211.864 L 148.000 212.007 148.000 198.470 L 148.000 184.933 150.500 184.785 C 151.875 184.703,154.299 184.668,155.886 184.707 L 158.773 184.778 161.563 199.667 L 164.353 214.556 165.010 214.497 C 165.371 214.464,169.785 214.039,174.819 213.552 C 179.853 213.065,184.128 212.667,184.319 212.667 C 184.844 212.667,185.049 213.253,178.859 197.071 C 175.665 188.721,173.011 181.689,172.963 181.444 C 172.887 181.065,173.545 180.657,177.437 178.669 L 182.000 176.337 181.994 175.446 C 181.984 174.142,179.200 141.124,179.092 141.031 C 179.041 140.988,170.150 140.535,159.333 140.025 C 148.517 139.515,138.842 139.037,137.833 138.962 L 136.000 138.828 135.990 139.914 M190.879 139.914 C 190.874 140.511,189.938 156.850,188.799 176.222 C 187.661 195.594,186.790 211.507,186.865 211.583 C 186.939 211.659,190.575 211.785,194.944 211.864 L 202.889 212.007 202.889 198.470 L 202.889 184.933 205.389 184.785 C 206.764 184.703,209.188 184.668,210.775 184.707 L 213.662 184.778 216.452 199.667 L 219.241 214.556 219.899 214.497 C 220.260 214.464,224.674 214.039,229.708 213.552 C 234.742 213.065,239.017 212.667,239.208 212.667 C 239.733 212.667,239.938 213.253,233.748 197.071 C 230.554 188.721,227.900 181.689,227.851 181.444 C 227.776 181.065,228.434 180.657,232.326 178.669 L 236.889 176.337 236.883 175.446 C 236.873 174.142,234.089 141.124,233.981 141.031 C 233.930 140.988,225.039 140.535,214.222 140.025 C 203.406 139.515,193.731 139.037,192.722 138.962 L 190.889 138.828 190.879 139.914 M329.553 141.611 C 329.551 141.764,328.506 156.935,327.230 175.326 C 325.954 193.716,324.935 208.787,324.964 208.816 C 325.019 208.871,379.630 211.063,379.710 211.014 C 379.734 210.999,378.609 195.390,377.210 176.327 C 375.812 157.264,374.667 141.592,374.667 141.500 C 374.667 141.408,364.517 141.333,352.111 141.333 C 334.216 141.333,329.555 141.391,329.553 141.611 M49.128 153.965 L 50.164 159.152 49.249 159.546 C 48.745 159.763,45.172 161.354,41.307 163.081 C 37.443 164.809,34.218 166.222,34.141 166.222 C 33.749 166.222,33.996 148.923,34.389 148.818 C 34.603 148.761,37.773 148.729,41.434 148.746 L 48.091 148.778 49.128 153.965 M164.667 161.778 C 164.667 166.544,164.592 170.446,164.500 170.447 C 164.408 170.449,161.533 170.597,158.111 170.777 C 154.689 170.957,151.230 171.105,150.424 171.107 L 148.959 171.111 148.811 165.944 C 148.729 163.103,148.598 159.053,148.519 156.944 L 148.376 153.111 156.521 153.111 L 164.667 153.111 164.667 161.778 M219.556 161.778 C 219.556 166.544,219.481 170.446,219.389 170.447 C 219.297 170.449,216.422 170.597,213.000 170.777 C 209.578 170.957,206.118 171.105,205.313 171.107 L 203.848 171.111 203.700 165.944 C 203.618 163.103,203.487 159.053,203.408 156.944 L 203.265 153.111 211.410 153.111 L 219.556 153.111 219.556 161.778 M354.611 157.475 C 358.125 157.601,358.666 157.668,358.665 157.977 C 358.664 158.173,359.175 166.715,359.799 176.958 C 360.424 187.202,360.878 195.641,360.808 195.711 C 360.653 195.866,343.629 195.347,342.218 195.144 L 341.213 195.000 342.482 177.111 C 343.180 167.272,343.757 158.733,343.765 158.135 L 343.778 157.047 347.167 157.188 C 349.031 157.265,352.381 157.394,354.611 157.475 M42.794 184.895 C 47.905 185.998,52.105 186.923,52.127 186.951 C 52.341 187.211,53.200 197.616,53.012 197.671 C 52.780 197.738,36.092 198.233,34.278 198.226 L 33.333 198.222 33.333 190.556 C 33.333 186.339,33.371 182.889,33.418 182.889 C 33.464 182.889,37.683 183.792,42.794 184.895 " stroke="none" fill="#f4d3a3" fill-rule="evenodd"></path><path id="path1" d="M113.333 39.695 L 90.111 40.442 87.000 41.131 C 85.289 41.510,83.563 42.008,83.165 42.237 C 82.444 42.652,82.426 42.651,79.609 41.975 L 76.778 41.296 56.222 40.475 L 35.667 39.654 32.751 40.347 C 27.276 41.648,24.416 44.486,23.108 49.914 L 22.418 52.778 22.105 81.333 C 21.933 97.039,21.789 113.075,21.785 116.968 C 21.779 122.725,21.723 124.027,21.486 123.935 C 21.325 123.874,19.838 124.147,18.181 124.543 C 12.599 125.876,9.759 128.673,8.440 134.136 L 7.748 137.000 7.344 175.556 L 6.939 214.111 7.614 217.000 C 8.577 221.128,10.387 223.571,14.181 225.867 C 14.627 226.137,19.801 227.328,20.543 227.331 C 23.193 227.341,68.660 222.154,71.485 221.518 L 74.637 220.809 76.374 221.176 C 77.780 221.473,82.054 221.651,98.778 222.110 C 125.864 222.853,125.019 222.819,125.614 223.205 C 127.430 224.384,131.516 224.904,140.000 225.036 L 148.111 225.162 150.981 224.467 C 152.559 224.085,153.972 223.671,154.121 223.548 C 154.315 223.386,154.957 223.748,156.399 224.831 C 158.404 226.337,158.411 226.340,161.517 227.055 L 164.627 227.772 174.702 226.777 C 180.244 226.229,185.550 225.595,186.493 225.367 C 188.040 224.994,188.932 224.963,195.604 225.056 L 203.000 225.158 205.870 224.465 C 207.448 224.084,208.861 223.671,209.010 223.548 C 209.204 223.386,209.847 223.749,211.291 224.833 L 213.301 226.343 216.484 227.061 L 219.667 227.778 229.566 226.795 C 239.145 225.843,244.927 224.915,245.648 224.213 C 245.764 224.100,249.238 224.069,253.759 224.140 L 261.667 224.266 264.418 223.594 C 267.132 222.931,267.953 222.525,270.464 220.603 C 271.446 219.852,273.337 216.788,273.597 215.526 C 273.935 213.891,273.916 213.887,275.330 215.885 C 277.357 218.746,279.202 219.905,283.232 220.848 L 285.909 221.474 295.343 220.635 C 308.148 219.496,310.427 218.906,313.364 215.969 C 313.745 215.588,313.797 215.624,314.668 216.865 C 316.239 219.105,318.477 220.505,321.804 221.329 L 324.556 222.011 351.667 223.123 C 366.578 223.734,379.228 224.178,379.778 224.110 C 386.975 223.220,390.746 220.108,392.227 213.836 L 392.946 210.790 390.463 176.562 C 387.546 136.356,387.653 137.226,385.183 133.837 C 382.739 130.484,378.124 128.226,373.703 128.221 L 372.778 128.220 373.379 127.721 C 375.221 126.193,376.262 124.224,377.084 120.709 L 377.723 117.975 374.424 87.932 C 370.633 53.414,370.718 53.958,368.610 50.966 C 365.212 46.144,365.115 46.121,334.832 42.852 L 311.776 40.363 308.746 41.070 C 303.234 42.358,300.410 45.137,299.094 50.572 L 298.398 53.444 298.662 73.297 C 298.806 84.216,298.863 93.211,298.789 93.286 C 298.636 93.438,293.266 94.215,293.145 94.102 C 293.102 94.063,293.336 85.249,293.664 74.515 L 294.261 55.000 293.560 52.018 C 292.700 48.360,291.415 46.297,288.826 44.414 C 286.146 42.465,284.404 42.070,272.444 40.705 L 263.222 39.652 260.310 40.344 C 257.463 41.019,254.045 42.824,253.647 43.861 C 253.576 44.045,247.432 44.096,230.541 44.052 C 210.201 44.001,207.376 44.034,206.182 44.344 L 204.833 44.693 204.250 44.044 C 202.594 42.200,200.707 41.185,197.557 40.445 L 194.562 39.740 186.892 40.207 C 177.615 40.772,173.746 41.459,171.583 42.927 L 170.380 43.744 169.245 42.913 C 167.627 41.728,167.748 41.779,164.917 41.072 C 161.676 40.262,146.791 39.551,144.688 40.106 C 143.662 40.376,143.376 40.345,140.438 39.642 C 138.706 39.228,137.123 38.902,136.922 38.918 C 136.720 38.934,126.106 39.283,113.333 39.695 M137.450 59.944 C 137.361 64.192,137.266 67.690,137.240 67.718 C 137.214 67.747,129.576 67.654,120.265 67.513 C 110.955 67.371,103.295 67.298,103.244 67.350 C 103.152 67.444,104.009 80.493,104.116 80.623 C 104.147 80.660,109.706 80.341,116.471 79.915 C 123.235 79.489,128.798 79.169,128.833 79.204 C 128.918 79.288,130.444 93.416,130.444 94.116 L 130.444 94.667 117.889 94.667 C 107.994 94.667,105.333 94.726,105.330 94.944 C 105.320 95.772,106.068 108.791,106.130 108.861 C 106.170 108.907,112.483 108.290,120.157 107.491 C 127.832 106.692,134.172 106.105,134.247 106.186 C 134.384 106.336,135.604 125.582,135.483 125.702 C 135.413 125.772,91.927 126.843,91.832 126.777 C 91.686 126.676,89.472 54.009,89.611 53.871 C 89.753 53.729,129.360 52.322,135.196 52.251 L 137.613 52.222 137.450 59.944 M56.333 53.687 C 67.578 54.131,76.800 54.514,76.827 54.537 C 76.864 54.570,79.110 76.779,79.387 79.848 C 79.442 80.466,79.311 80.537,69.566 85.116 C 64.134 87.669,59.834 89.805,60.011 89.863 C 60.188 89.921,64.728 90.928,70.099 92.101 C 75.470 93.275,79.917 94.287,79.980 94.351 C 80.096 94.466,84.001 124.511,83.912 124.604 C 83.802 124.719,35.020 129.983,34.927 129.889 C 34.869 129.832,34.990 113.309,35.194 93.171 C 35.399 73.032,35.564 55.731,35.561 54.722 C 35.558 53.714,35.631 52.887,35.722 52.884 C 35.814 52.881,45.089 53.243,56.333 53.687 M194.758 57.611 C 194.964 64.549,196.015 124.504,195.932 124.587 C 195.804 124.714,179.556 125.680,179.548 125.561 C 179.543 125.497,179.210 119.270,178.807 111.723 C 178.404 104.176,178.033 97.963,177.982 97.917 C 177.879 97.825,162.621 98.177,162.569 98.273 C 162.550 98.306,162.657 103.533,162.805 109.889 C 162.953 116.244,163.083 122.475,163.093 123.735 L 163.111 126.025 153.611 125.872 C 148.386 125.787,144.070 125.682,144.020 125.638 C 143.916 125.547,145.484 60.024,145.691 55.802 L 145.826 53.049 150.969 53.195 C 153.797 53.275,157.386 53.403,158.944 53.480 L 161.778 53.618 161.778 68.277 L 161.778 82.936 170.278 82.775 C 174.953 82.686,178.797 82.598,178.822 82.578 C 178.846 82.558,178.760 76.164,178.631 68.369 C 178.502 60.574,178.446 54.147,178.507 54.086 C 178.568 54.025,182.053 53.744,186.253 53.461 C 190.453 53.178,194.053 52.934,194.253 52.918 C 194.576 52.892,194.633 53.424,194.758 57.611 M272.287 53.866 C 277.028 54.398,280.940 54.870,280.980 54.916 C 281.020 54.962,280.680 67.200,280.225 82.111 C 279.770 97.022,279.409 109.240,279.423 109.261 C 279.436 109.282,285.579 108.448,293.073 107.406 C 300.567 106.365,306.725 105.548,306.758 105.590 C 306.848 105.705,305.198 126.211,305.092 126.302 C 304.957 126.417,265.611 123.907,265.479 123.775 C 265.417 123.714,264.911 108.514,264.354 89.998 C 263.797 71.483,263.314 55.558,263.280 54.611 C 263.243 53.560,263.306 52.891,263.443 52.894 C 263.566 52.897,267.546 53.334,272.287 53.866 M335.486 56.138 L 357.971 58.555 358.085 59.222 C 358.329 60.655,364.505 118.012,364.422 118.073 C 364.257 118.192,312.778 128.174,312.700 128.101 C 312.642 128.048,312.007 86.659,311.563 54.026 C 311.556 53.554,311.633 53.509,312.278 53.609 C 312.675 53.670,323.119 54.808,335.486 56.138 M252.667 57.278 C 252.667 57.369,253.812 73.042,255.210 92.105 C 256.609 111.168,257.734 126.777,257.710 126.792 C 257.630 126.841,203.019 124.649,202.964 124.594 C 202.935 124.564,203.954 109.494,205.230 91.103 C 206.506 72.713,207.551 57.542,207.553 57.389 C 207.555 57.169,212.216 57.111,230.111 57.111 C 242.517 57.111,252.667 57.186,252.667 57.278 M49.056 64.596 C 48.662 64.700,48.415 82.000,48.807 82.000 C 48.885 82.000,52.110 80.587,55.974 78.859 C 59.838 77.132,63.412 75.541,63.916 75.324 L 64.831 74.929 63.794 69.742 L 62.757 64.556 56.101 64.524 C 52.440 64.507,49.269 64.539,49.056 64.596 M329.061 91.208 C 329.001 102.705,328.971 112.136,328.994 112.166 C 329.017 112.197,333.253 110.854,338.407 109.182 L 347.778 106.142 347.773 105.349 C 347.765 104.168,345.396 74.211,345.302 74.117 C 345.258 74.073,341.611 73.197,337.197 72.171 L 329.171 70.304 329.061 91.208 M221.765 73.912 C 221.757 74.511,221.180 83.050,220.482 92.889 L 219.213 110.778 220.218 110.922 C 221.629 111.125,238.653 111.644,238.808 111.488 C 238.878 111.418,238.424 102.980,237.799 92.736 C 237.175 82.492,236.664 73.951,236.665 73.755 C 236.666 73.446,236.125 73.379,232.611 73.252 C 230.381 73.172,227.031 73.043,225.167 72.966 L 221.778 72.825 221.765 73.912 M48.000 106.333 L 48.000 114.000 48.944 114.004 C 50.759 114.011,67.446 113.516,67.679 113.449 C 67.867 113.394,67.007 102.989,66.794 102.728 C 66.755 102.682,48.262 98.667,48.084 98.667 C 48.038 98.667,48.000 102.117,48.000 106.333 M41.667 137.909 C 52.911 138.354,62.133 138.736,62.160 138.759 C 62.198 138.792,64.444 161.001,64.720 164.071 C 64.775 164.689,64.644 164.759,54.899 169.338 C 49.467 171.891,45.167 174.027,45.345 174.085 C 45.522 174.143,50.061 175.150,55.432 176.323 C 60.803 177.497,65.250 178.509,65.314 178.573 C 65.429 178.688,69.334 208.734,69.246 208.826 C 69.135 208.942,20.353 214.205,20.260 214.112 C 20.203 214.055,20.323 197.531,20.528 177.393 C 20.732 157.255,20.897 139.953,20.894 138.944 C 20.891 137.936,20.964 137.109,21.056 137.106 C 21.147 137.104,30.422 137.465,41.667 137.909 M300.295 137.662 C 311.519 137.827,320.731 137.995,320.766 138.036 C 320.802 138.077,320.884 142.038,320.948 146.838 L 321.066 155.565 311.200 155.504 L 301.333 155.444 301.333 156.222 C 301.333 156.650,301.936 168.139,302.673 181.753 C 303.410 195.367,303.961 206.558,303.897 206.621 C 303.767 206.752,285.995 208.293,285.889 208.183 C 285.852 208.143,286.057 196.416,286.346 182.121 C 286.636 167.827,286.851 156.114,286.825 156.093 C 286.799 156.071,282.799 156.304,277.936 156.611 C 273.073 156.917,269.062 157.130,269.022 157.084 C 268.982 157.038,268.835 153.850,268.694 150.000 C 268.554 146.150,268.376 141.680,268.299 140.067 L 268.159 137.135 274.024 137.249 C 277.250 137.312,289.072 137.498,300.295 137.662 M259.278 138.590 L 261.556 138.727 261.556 174.954 L 261.556 211.182 257.056 211.036 C 254.581 210.956,250.706 210.888,248.444 210.886 C 246.183 210.884,244.193 210.794,244.022 210.685 C 243.734 210.503,244.965 151.106,245.468 140.913 L 245.604 138.159 251.302 138.306 C 254.436 138.386,258.025 138.514,259.278 138.590 M127.789 139.611 C 127.795 140.008,127.121 155.908,126.291 174.944 L 124.783 209.556 122.669 209.550 C 117.259 209.534,77.712 208.243,77.570 208.077 C 77.403 207.882,74.368 140.447,74.519 140.296 C 74.593 140.222,88.354 141.967,90.756 142.355 L 91.623 142.495 91.503 167.331 L 91.383 192.166 92.525 192.303 C 93.153 192.379,96.957 192.441,100.978 192.443 L 108.289 192.444 108.145 182.056 C 108.066 176.342,107.936 164.592,107.856 155.944 L 107.711 140.222 108.577 140.206 C 109.054 140.197,113.294 139.909,118.000 139.567 C 122.706 139.225,126.831 138.932,127.167 138.917 C 127.712 138.892,127.779 138.967,127.789 139.611 M159.333 140.025 C 170.150 140.535,179.041 140.988,179.092 141.031 C 179.200 141.124,181.984 174.142,181.994 175.446 L 182.000 176.337 177.437 178.669 C 173.545 180.657,172.887 181.065,172.963 181.444 C 173.011 181.689,175.665 188.721,178.859 197.071 C 185.049 213.253,184.844 212.667,184.319 212.667 C 184.128 212.667,179.853 213.065,174.819 213.552 C 169.785 214.039,165.371 214.464,165.010 214.497 L 164.353 214.556 161.563 199.667 L 158.773 184.778 155.886 184.707 C 154.299 184.668,151.875 184.703,150.500 184.785 L 148.000 184.933 148.000 198.470 L 148.000 212.007 140.056 211.864 C 135.686 211.785,132.050 211.659,131.976 211.583 C 131.901 211.507,132.772 195.594,133.910 176.222 C 135.049 156.850,135.985 140.511,135.990 139.914 L 136.000 138.828 137.833 138.962 C 138.842 139.037,148.517 139.515,159.333 140.025 M214.222 140.025 C 225.039 140.535,233.930 140.988,233.981 141.031 C 234.089 141.124,236.873 174.142,236.883 175.446 L 236.889 176.337 232.326 178.669 C 228.434 180.657,227.776 181.065,227.851 181.444 C 227.900 181.689,230.554 188.721,233.748 197.071 C 239.938 213.253,239.733 212.667,239.208 212.667 C 239.017 212.667,234.742 213.065,229.708 213.552 C 224.674 214.039,220.260 214.464,219.899 214.497 L 219.241 214.556 216.452 199.667 L 213.662 184.778 210.775 184.707 C 209.188 184.668,206.764 184.703,205.389 184.785 L 202.889 184.933 202.889 198.470 L 202.889 212.007 194.944 211.864 C 190.575 211.785,186.939 211.659,186.865 211.583 C 186.790 211.507,187.661 195.594,188.799 176.222 C 189.938 156.850,190.874 140.511,190.879 139.914 L 190.889 138.828 192.722 138.962 C 193.731 139.037,203.406 139.515,214.222 140.025 M374.667 141.500 C 374.667 141.592,375.812 157.264,377.210 176.327 C 378.609 195.390,379.734 210.999,379.710 211.014 C 379.630 211.063,325.019 208.871,324.964 208.816 C 324.935 208.787,325.954 193.716,327.230 175.326 C 328.506 156.935,329.551 141.764,329.553 141.611 C 329.555 141.391,334.216 141.333,352.111 141.333 C 364.517 141.333,374.667 141.408,374.667 141.500 M34.389 148.818 C 33.996 148.923,33.749 166.222,34.141 166.222 C 34.218 166.222,37.443 164.809,41.307 163.081 C 45.172 161.354,48.745 159.763,49.249 159.546 L 50.164 159.152 49.128 153.965 L 48.091 148.778 41.434 148.746 C 37.773 148.729,34.603 148.761,34.389 148.818 M148.519 156.944 C 148.598 159.053,148.729 163.103,148.811 165.944 L 148.959 171.111 150.424 171.107 C 151.230 171.105,154.689 170.957,158.111 170.777 C 161.533 170.597,164.408 170.449,164.500 170.447 C 164.592 170.446,164.667 166.544,164.667 161.778 L 164.667 153.111 156.521 153.111 L 148.376 153.111 148.519 156.944 M203.408 156.944 C 203.487 159.053,203.618 163.103,203.700 165.944 L 203.848 171.111 205.313 171.107 C 206.118 171.105,209.578 170.957,213.000 170.777 C 216.422 170.597,219.297 170.449,219.389 170.447 C 219.481 170.446,219.556 166.544,219.556 161.778 L 219.556 153.111 211.410 153.111 L 203.265 153.111 203.408 156.944 M343.765 158.135 C 343.757 158.733,343.180 167.272,342.482 177.111 L 341.213 195.000 342.218 195.144 C 343.629 195.347,360.653 195.866,360.808 195.711 C 360.878 195.641,360.424 187.202,359.799 176.958 C 359.175 166.715,358.664 158.173,358.665 157.977 C 358.666 157.668,358.125 157.601,354.611 157.475 C 352.381 157.394,349.031 157.265,347.167 157.188 L 343.778 157.047 343.765 158.135 M33.333 190.556 L 33.333 198.222 34.278 198.226 C 36.092 198.233,52.780 197.738,53.012 197.671 C 53.200 197.616,52.341 187.211,52.127 186.951 C 52.088 186.904,33.595 182.889,33.418 182.889 C 33.371 182.889,33.333 186.339,33.333 190.556 " stroke="none" fill="#fc6444" fill-rule="evenodd"></path></g></svg>